<svg xmlns="http://www.w3.org/2000/svg" viewBox="0 0 980 1070" width="980" height="1070" role="img" aria-label="microtel layered structure">
<g font-family="'Avenir Next','Segoe UI Variable','Segoe UI',Inter,'Helvetica Neue',Helvetica,Arial,sans-serif">
  <polygon points="39.7,20.4 642.5,19.8 640.0,70.5 38.1,70.1" fill="#f6f8fa"/>
  <path d="M37.4 20.9 Q337.8 21.5 641.7 19.4" fill="none" stroke="#768390" stroke-width="2.2" stroke-linecap="round"/>
  <path d="M37.6 18.5 Q341.8 20.5 644.5 21.5" fill="none" stroke="#768390" stroke-width="2.2" stroke-linecap="round"/>
  <path d="M638.9 15.4 Q638.1 42.4 640.1 71.6" fill="none" stroke="#768390" stroke-width="2.2" stroke-linecap="round"/>
  <path d="M638.5 16.9 Q639.2 46.1 639.8 74.1" fill="none" stroke="#768390" stroke-width="2.2" stroke-linecap="round"/>
  <path d="M643.0 70.5 Q342.1 72.1 36.9 69.3" fill="none" stroke="#768390" stroke-width="2.2" stroke-linecap="round"/>
  <path d="M644.1 70.7 Q339.3 68.0 36.4 69.1" fill="none" stroke="#768390" stroke-width="2.2" stroke-linecap="round"/>
  <path d="M40.9 72.7 Q43.0 46.2 41.1 16.6" fill="none" stroke="#768390" stroke-width="2.2" stroke-linecap="round"/>
  <path d="M38.4 72.1 Q42.0 44.0 41.3 16.9" fill="none" stroke="#768390" stroke-width="2.2" stroke-linecap="round"/>
  <text x="340.0" y="50" fill="#1f2328" font-size="18" font-weight="bold" font-style="normal" text-anchor="middle">Application (C++; Python optional)</text>
  <path d="M338.6 74.4 Q337.9 85.1 340.9 97.3" fill="none" stroke="#768390" stroke-width="2.4" stroke-linecap="round"/>
  <path d="M341.5 74.8 Q338.4 84.1 338.8 97.2" fill="none" stroke="#768390" stroke-width="2.4" stroke-linecap="round"/>
  <path d="M341.0 97.0 Q335.8 92.9 333.4 86.7" fill="none" stroke="#768390" stroke-width="2.4" stroke-linecap="round"/>
  <path d="M338.8 98.5 Q334.1 91.5 332.0 86.7" fill="none" stroke="#768390" stroke-width="2.4" stroke-linecap="round"/>
  <path d="M341.5 99.0 Q342.6 93.1 346.2 88.1" fill="none" stroke="#768390" stroke-width="2.4" stroke-linecap="round"/>
  <path d="M341.1 98.5 Q342.1 92.4 345.5 88.5" fill="none" stroke="#768390" stroke-width="2.4" stroke-linecap="round"/>
  <polygon points="41.6,99.0 638.8,97.4 637.5,172.5 38.5,172.6" fill="#dbeafe"/>
  <path d="M36.6 99.9 Q340.9 101.5 644.5 99.9" fill="none" stroke="#768390" stroke-width="2.2" stroke-linecap="round"/>
  <path d="M36.0 98.9 Q339.0 98.6 644.3 101.0" fill="none" stroke="#768390" stroke-width="2.2" stroke-linecap="round"/>
  <path d="M640.8 98.4 Q641.6 137.9 639.0 176.4" fill="none" stroke="#768390" stroke-width="2.2" stroke-linecap="round"/>
  <path d="M639.7 95.7 Q638.0 137.0 638.5 176.5" fill="none" stroke="#768390" stroke-width="2.2" stroke-linecap="round"/>
  <path d="M642.2 173.0 Q338.3 173.2 37.3 171.3" fill="none" stroke="#768390" stroke-width="2.2" stroke-linecap="round"/>
  <path d="M641.6 171.1 Q339.9 171.2 37.2 173.1" fill="none" stroke="#768390" stroke-width="2.2" stroke-linecap="round"/>
  <path d="M41.3 174.1 Q39.7 133.2 38.5 96.3" fill="none" stroke="#768390" stroke-width="2.2" stroke-linecap="round"/>
  <path d="M39.0 174.6 Q39.0 136.9 40.2 95.8" fill="none" stroke="#768390" stroke-width="2.2" stroke-linecap="round"/>
  <text x="340.0" y="130" fill="#1f2328" font-size="18" font-weight="bold" font-style="normal" text-anchor="middle">OpenTelemetry Trace API (v1)</text>
  <text x="340.0" y="156" fill="#1f2328" font-size="15" font-weight="normal" font-style="normal" text-anchor="middle">Tracer · Span · Context · W3C Propagators</text>
  <text x="664" y="134" fill="#768390" font-size="14" font-weight="normal" font-style="normal" text-anchor="start">include/microtel/</text>
  <text x="664" y="154" fill="#768390" font-size="14" font-weight="normal" font-style="normal" text-anchor="start">src/api/  (Track A)</text>
  <path d="M341.5 176.5 Q339.5 185.3 340.6 198.3" fill="none" stroke="#768390" stroke-width="2.4" stroke-linecap="round"/>
  <path d="M338.5 177.3 Q337.4 189.0 340.6 199.5" fill="none" stroke="#768390" stroke-width="2.4" stroke-linecap="round"/>
  <path d="M339.9 198.7 Q334.4 193.8 332.6 188.5" fill="none" stroke="#768390" stroke-width="2.4" stroke-linecap="round"/>
  <path d="M340.8 199.3 Q338.7 195.3 334.0 187.6" fill="none" stroke="#768390" stroke-width="2.4" stroke-linecap="round"/>
  <path d="M339.5 198.6 Q343.4 194.6 348.1 188.1" fill="none" stroke="#768390" stroke-width="2.4" stroke-linecap="round"/>
  <path d="M341.2 198.2 Q344.5 192.9 347.2 186.5" fill="none" stroke="#768390" stroke-width="2.4" stroke-linecap="round"/>
  <polygon points="37.5,200.8 643.0,202.3 641.4,293.3 41.4,294.5" fill="#dbeafe"/>
  <path d="M36.8 201.1 Q337.2 201.4 641.7 200.8" fill="none" stroke="#768390" stroke-width="2.2" stroke-linecap="round"/>
  <path d="M36.9 199.1 Q340.8 201.4 643.6 200.0" fill="none" stroke="#768390" stroke-width="2.2" stroke-linecap="round"/>
  <path d="M639.2 195.4 Q638.0 245.0 639.4 297.6" fill="none" stroke="#768390" stroke-width="2.2" stroke-linecap="round"/>
  <path d="M641.3 197.5 Q639.8 248.6 639.8 298.3" fill="none" stroke="#768390" stroke-width="2.2" stroke-linecap="round"/>
  <path d="M642.0 293.8 Q341.7 294.0 38.0 295.3" fill="none" stroke="#768390" stroke-width="2.2" stroke-linecap="round"/>
  <path d="M643.3 293.4 Q341.0 295.2 35.8 294.0" fill="none" stroke="#768390" stroke-width="2.2" stroke-linecap="round"/>
  <path d="M40.7 298.4 Q39.8 246.2 39.3 195.9" fill="none" stroke="#768390" stroke-width="2.2" stroke-linecap="round"/>
  <path d="M39.1 296.7 Q38.9 248.3 40.4 197.0" fill="none" stroke="#768390" stroke-width="2.2" stroke-linecap="round"/>
  <text x="340.0" y="230" fill="#1f2328" font-size="18" font-weight="bold" font-style="normal" text-anchor="middle">SDK (minimal, v1)</text>
  <text x="340.0" y="256" fill="#1f2328" font-size="15" font-weight="normal" font-style="normal" text-anchor="middle">Resource · AlwaysOn / AlwaysOff / TraceIdRatio / ParentBased</text>
  <text x="340.0" y="278" fill="#1f2328" font-size="15" font-weight="normal" font-style="normal" text-anchor="middle">BatchSpanProcessor · ForceFlush · Shutdown</text>
  <text x="664" y="234" fill="#768390" font-size="14" font-weight="normal" font-style="normal" text-anchor="start">src/sdk/  (Track A)</text>
  <path d="M341.5 297.8 Q341.7 306.2 338.6 318.5" fill="none" stroke="#768390" stroke-width="2.4" stroke-linecap="round"/>
  <path d="M340.7 298.2 Q337.9 308.0 339.4 320.9" fill="none" stroke="#768390" stroke-width="2.4" stroke-linecap="round"/>
  <path d="M339.9 318.5 Q335.5 311.3 334.3 308.1" fill="none" stroke="#768390" stroke-width="2.4" stroke-linecap="round"/>
  <path d="M340.4 319.8 Q338.4 316.6 333.6 309.4" fill="none" stroke="#768390" stroke-width="2.4" stroke-linecap="round"/>
  <path d="M340.6 319.0 Q341.5 313.3 346.7 307.9" fill="none" stroke="#768390" stroke-width="2.4" stroke-linecap="round"/>
  <path d="M340.7 319.0 Q344.2 313.8 346.1 308.4" fill="none" stroke="#768390" stroke-width="2.4" stroke-linecap="round"/>
  <polygon points="40.7,323.5 639.4,323.8 642.4,391.5 42.6,395.3" fill="#dbeafe"/>
  <path d="M35.8 321.9 Q339.1 322.9 643.4 323.3" fill="none" stroke="#768390" stroke-width="2.2" stroke-linecap="round"/>
  <path d="M38.2 322.9 Q342.0 321.1 644.4 321.9" fill="none" stroke="#768390" stroke-width="2.2" stroke-linecap="round"/>
  <path d="M640.7 320.0 Q639.3 360.6 640.5 397.7" fill="none" stroke="#768390" stroke-width="2.2" stroke-linecap="round"/>
  <path d="M641.5 320.5 Q640.0 361.0 640.1 397.9" fill="none" stroke="#768390" stroke-width="2.2" stroke-linecap="round"/>
  <path d="M644.1 393.5 Q340.1 394.8 35.7 393.8" fill="none" stroke="#768390" stroke-width="2.2" stroke-linecap="round"/>
  <path d="M643.0 392.5 Q341.8 391.1 38.0 392.6" fill="none" stroke="#768390" stroke-width="2.2" stroke-linecap="round"/>
  <path d="M39.5 397.9 Q39.2 358.9 38.8 317.9" fill="none" stroke="#768390" stroke-width="2.2" stroke-linecap="round"/>
  <path d="M41.1 397.6 Q43.2 356.5 41.4 319.0" fill="none" stroke="#768390" stroke-width="2.2" stroke-linecap="round"/>
  <text x="340.0" y="352" fill="#1f2328" font-size="18" font-weight="bold" font-style="normal" text-anchor="middle">Exporter (protocol-agnostic)</text>
  <text x="340.0" y="378" fill="#1f2328" font-size="15" font-weight="normal" font-style="normal" text-anchor="middle">Batching · retry orchestration · drop accounting</text>
  <text x="664" y="356" fill="#768390" font-size="14" font-weight="normal" font-style="normal" text-anchor="start">src/exporter/  (Track A)</text>
  <path d="M339.1 398.1 Q339.8 409.5 339.3 420.7" fill="none" stroke="#768390" stroke-width="2.4" stroke-linecap="round"/>
  <path d="M341.1 398.2 Q341.8 410.7 339.4 419.6" fill="none" stroke="#768390" stroke-width="2.4" stroke-linecap="round"/>
  <path d="M339.1 421.1 Q337.2 413.7 334.7 409.0" fill="none" stroke="#768390" stroke-width="2.4" stroke-linecap="round"/>
  <path d="M340.1 420.0 Q338.9 413.8 333.5 407.4" fill="none" stroke="#768390" stroke-width="2.4" stroke-linecap="round"/>
  <path d="M339.7 421.0 Q344.2 413.0 347.0 408.9" fill="none" stroke="#768390" stroke-width="2.4" stroke-linecap="round"/>
  <path d="M340.1 419.7 Q343.2 414.9 348.3 410.3" fill="none" stroke="#768390" stroke-width="2.4" stroke-linecap="round"/>
  <polygon points="37.8,421.6 641.9,424.4 639.9,514.9 38.1,516.7" fill="#fff4d6"/>
  <path d="M38.4 420.8 Q339.8 419.4 643.9 420.5" fill="none" stroke="#768390" stroke-width="2.2" stroke-linecap="round"/>
  <path d="M37.6 421.4 Q338.3 422.9 642.5 422.4" fill="none" stroke="#768390" stroke-width="2.2" stroke-linecap="round"/>
  <path d="M638.8 419.0 Q639.1 468.3 639.2 518.0" fill="none" stroke="#768390" stroke-width="2.2" stroke-linecap="round"/>
  <path d="M639.6 418.7 Q638.5 468.9 640.1 517.9" fill="none" stroke="#768390" stroke-width="2.2" stroke-linecap="round"/>
  <path d="M643.4 516.1 Q342.4 515.0 38.1 516.4" fill="none" stroke="#768390" stroke-width="2.2" stroke-linecap="round"/>
  <path d="M643.8 517.0 Q340.2 518.1 38.3 515.4" fill="none" stroke="#768390" stroke-width="2.2" stroke-linecap="round"/>
  <path d="M39.1 520.6 Q39.0 470.2 41.2 417.8" fill="none" stroke="#768390" stroke-width="2.2" stroke-linecap="round"/>
  <path d="M39.2 517.7 Q41.4 466.6 41.1 418.7" fill="none" stroke="#768390" stroke-width="2.2" stroke-linecap="round"/>
  <text x="340.0" y="452" fill="#1f2328" font-size="18" font-weight="bold" font-style="normal" text-anchor="middle">OTLP Wire Encoder</text>
  <text x="340.0" y="478" fill="#1f2328" font-size="15" font-weight="normal" font-style="normal" text-anchor="middle">upb (vendored, pinned) + OTel .proto definitions</text>
  <text x="340.0" y="500" fill="#1f2328" font-size="15" font-weight="normal" font-style="normal" text-anchor="middle">C accessors wrapped behind a thin C++ API</text>
  <text x="664" y="456" fill="#768390" font-size="14" font-weight="normal" font-style="normal" text-anchor="start">src/wire/encoder/  (Track F)</text>
  <path d="M339.7 520.6 Q339.9 542.6 338.5 561.0" fill="none" stroke="#768390" stroke-width="2.4" stroke-linecap="round"/>
  <path d="M341.5 518.8 Q340.8 541.6 340.0 562.8" fill="none" stroke="#768390" stroke-width="2.4" stroke-linecap="round"/>
  <path d="M339.0 560.6 Q335.7 555.1 331.9 549.4" fill="none" stroke="#768390" stroke-width="2.4" stroke-linecap="round"/>
  <path d="M340.2 560.9 Q337.7 557.6 332.2 550.0" fill="none" stroke="#768390" stroke-width="2.4" stroke-linecap="round"/>
  <path d="M341.4 560.7 Q343.2 557.7 345.4 552.4" fill="none" stroke="#768390" stroke-width="2.4" stroke-linecap="round"/>
  <path d="M339.4 561.9 Q343.6 554.2 346.8 550.7" fill="none" stroke="#768390" stroke-width="2.4" stroke-linecap="round"/>
  <text x="356" y="546" fill="#768390" font-size="14" font-weight="normal" font-style="italic" text-anchor="start">EncodedPayload (bytes)</text>
  <polygon points="221.2,566.1 458.1,563.7 461.4,611.4 218.2,610.0" fill="#ffffff"/>
  <path d="M217.0 562.4 Q341.5 565.3 464.3 565.0" fill="none" stroke="#768390" stroke-width="2.2" stroke-linecap="round"/>
  <path d="M217.4 563.7 Q342.5 565.2 463.3 564.0" fill="none" stroke="#768390" stroke-width="2.2" stroke-linecap="round"/>
  <path d="M459.2 562.3 Q461.4 588.7 460.8 615.9" fill="none" stroke="#768390" stroke-width="2.2" stroke-linecap="round"/>
  <path d="M461.3 562.2 Q462.1 588.6 460.6 615.9" fill="none" stroke="#768390" stroke-width="2.2" stroke-linecap="round"/>
  <path d="M463.7 610.6 Q337.9 610.6 216.5 611.9" fill="none" stroke="#768390" stroke-width="2.2" stroke-linecap="round"/>
  <path d="M463.4 612.4 Q340.5 612.2 216.1 613.4" fill="none" stroke="#768390" stroke-width="2.2" stroke-linecap="round"/>
  <path d="M220.5 615.2 Q222.5 588.6 220.1 560.6" fill="none" stroke="#768390" stroke-width="2.2" stroke-linecap="round"/>
  <path d="M220.6 615.8 Q221.6 588.7 221.5 559.5" fill="none" stroke="#768390" stroke-width="2.2" stroke-linecap="round"/>
  <text x="340" y="594" fill="#1f2328" font-size="18" font-weight="bold" font-style="normal" text-anchor="middle">IWireCodec</text>
  <text x="664" y="594" fill="#768390" font-size="14" font-weight="normal" font-style="normal" text-anchor="start">one interface, two implementations</text>
  <path d="M179.2 655.7 Q228.3 633.6 278.6 615.0" fill="none" stroke="#768390" stroke-width="2.4" stroke-linecap="round"/>
  <path d="M179.2 657.3 Q231.7 637.0 280.2 616.0" fill="none" stroke="#768390" stroke-width="2.4" stroke-linecap="round"/>
  <path d="M281.6 616.4 Q277.8 621.9 273.2 625.1" fill="none" stroke="#768390" stroke-width="2.4" stroke-linecap="round"/>
  <path d="M278.5 617.4 Q273.4 621.8 271.1 626.3" fill="none" stroke="#768390" stroke-width="2.4" stroke-linecap="round"/>
  <path d="M280.4 614.6 Q274.6 614.5 268.6 613.6" fill="none" stroke="#768390" stroke-width="2.4" stroke-linecap="round"/>
  <path d="M279.6 615.3 Q272.7 615.6 267.7 614.0" fill="none" stroke="#768390" stroke-width="2.4" stroke-linecap="round"/>
  <path d="M499.3 654.4 Q447.8 635.6 399.2 614.5" fill="none" stroke="#768390" stroke-width="2.4" stroke-linecap="round"/>
  <path d="M499.6 657.3 Q452.4 637.9 400.8 614.6" fill="none" stroke="#768390" stroke-width="2.4" stroke-linecap="round"/>
  <path d="M398.6 617.3 Q407.7 614.4 412.6 613.7" fill="none" stroke="#768390" stroke-width="2.4" stroke-linecap="round"/>
  <path d="M400.1 617.4 Q408.9 616.9 413.5 613.7" fill="none" stroke="#768390" stroke-width="2.4" stroke-linecap="round"/>
  <path d="M400.3 614.8 Q402.9 618.6 408.2 626.3" fill="none" stroke="#768390" stroke-width="2.4" stroke-linecap="round"/>
  <path d="M400.1 614.8 Q403.6 619.8 407.6 627.0" fill="none" stroke="#768390" stroke-width="2.4" stroke-linecap="round"/>
  <polygon points="40.5,659.5 321.7,660.2 323.0,812.7 41.4,808.4" fill="#ede9fe"/>
  <path d="M35.8 661.3 Q179.2 659.8 323.9 660.4" fill="none" stroke="#768390" stroke-width="2.2" stroke-linecap="round"/>
  <path d="M37.6 660.2 Q181.6 659.0 323.3 660.4" fill="none" stroke="#768390" stroke-width="2.2" stroke-linecap="round"/>
  <path d="M319.2 658.5 Q318.2 734.4 321.3 814.2" fill="none" stroke="#768390" stroke-width="2.2" stroke-linecap="round"/>
  <path d="M319.3 656.8 Q320.0 732.4 320.4 811.7" fill="none" stroke="#768390" stroke-width="2.2" stroke-linecap="round"/>
  <path d="M321.7 810.6 Q178.9 810.4 37.2 810.4" fill="none" stroke="#768390" stroke-width="2.2" stroke-linecap="round"/>
  <path d="M322.1 809.5 Q178.1 808.6 37.8 811.1" fill="none" stroke="#768390" stroke-width="2.2" stroke-linecap="round"/>
  <path d="M41.0 813.4 Q40.6 733.7 40.9 656.1" fill="none" stroke="#768390" stroke-width="2.2" stroke-linecap="round"/>
  <path d="M41.0 812.6 Q40.0 735.8 40.5 658.6" fill="none" stroke="#768390" stroke-width="2.2" stroke-linecap="round"/>
  <text x="180" y="690" fill="#1f2328" font-size="18" font-weight="bold" font-style="normal" text-anchor="middle">OTLP/HTTP Codec</text>
  <text x="64" y="720" fill="#1f2328" font-size="15" font-weight="normal" font-style="normal" text-anchor="start">– application/x-protobuf</text>
  <text x="64" y="742" fill="#1f2328" font-size="15" font-weight="normal" font-style="normal" text-anchor="start">– POST /v1/traces</text>
  <text x="64" y="764" fill="#1f2328" font-size="15" font-weight="normal" font-style="normal" text-anchor="start">– Retry-After</text>
  <polygon points="361.5,662.5 639.6,659.2 637.6,812.3 357.5,807.5" fill="#ede9fe"/>
  <path d="M357.2 660.0 Q501.6 657.8 643.6 659.4" fill="none" stroke="#768390" stroke-width="2.2" stroke-linecap="round"/>
  <path d="M356.1 660.5 Q499.9 660.8 641.7 659.4" fill="none" stroke="#768390" stroke-width="2.2" stroke-linecap="round"/>
  <path d="M639.3 655.9 Q638.8 733.1 639.5 813.7" fill="none" stroke="#768390" stroke-width="2.2" stroke-linecap="round"/>
  <path d="M640.7 657.2 Q642.8 735.5 641.3 814.4" fill="none" stroke="#768390" stroke-width="2.2" stroke-linecap="round"/>
  <path d="M644.0 809.4 Q502.1 811.3 356.4 809.7" fill="none" stroke="#768390" stroke-width="2.2" stroke-linecap="round"/>
  <path d="M642.2 809.6 Q498.9 809.1 356.6 809.6" fill="none" stroke="#768390" stroke-width="2.2" stroke-linecap="round"/>
  <path d="M359.0 813.2 Q361.5 735.4 361.0 657.1" fill="none" stroke="#768390" stroke-width="2.2" stroke-linecap="round"/>
  <path d="M359.0 813.8 Q358.0 735.1 361.2 656.3" fill="none" stroke="#768390" stroke-width="2.2" stroke-linecap="round"/>
  <text x="500" y="690" fill="#1f2328" font-size="18" font-weight="bold" font-style="normal" text-anchor="middle">OTLP/gRPC Codec</text>
  <text x="384" y="720" fill="#1f2328" font-size="15" font-weight="normal" font-style="normal" text-anchor="start">– 5-byte length-prefix framing</text>
  <text x="384" y="742" fill="#1f2328" font-size="15" font-weight="normal" font-style="normal" text-anchor="start">– :path: /&lt;svc&gt;/&lt;method&gt;</text>
  <text x="384" y="764" fill="#1f2328" font-size="15" font-weight="normal" font-style="normal" text-anchor="start">– te: trailers</text>
  <text x="384" y="786" fill="#1f2328" font-size="15" font-weight="normal" font-style="normal" text-anchor="start">– parses grpc-status / RetryInfo</text>
  <text x="664" y="714" fill="#768390" font-size="14" font-weight="normal" font-style="normal" text-anchor="start">src/wire/http/  (Track B)</text>
  <text x="664" y="734" fill="#768390" font-size="14" font-weight="normal" font-style="normal" text-anchor="start">src/wire/grpc/  (Track C)</text>
  <path d="M180.1 814.2 Q242.2 834.4 301.5 858.5" fill="none" stroke="#768390" stroke-width="2.4" stroke-linecap="round"/>
  <path d="M180.1 814.9 Q240.5 837.5 298.7 856.7" fill="none" stroke="#768390" stroke-width="2.4" stroke-linecap="round"/>
  <path d="M298.7 858.4 Q293.0 858.8 286.1 861.4" fill="none" stroke="#768390" stroke-width="2.4" stroke-linecap="round"/>
  <path d="M299.1 858.8 Q292.8 859.4 287.3 861.4" fill="none" stroke="#768390" stroke-width="2.4" stroke-linecap="round"/>
  <path d="M301.5 858.6 Q297.7 854.2 291.9 847.9" fill="none" stroke="#768390" stroke-width="2.4" stroke-linecap="round"/>
  <path d="M301.3 857.7 Q298.7 854.4 293.0 848.3" fill="none" stroke="#768390" stroke-width="2.4" stroke-linecap="round"/>
  <path d="M501.1 815.2 Q441.4 837.8 381.5 858.4" fill="none" stroke="#768390" stroke-width="2.4" stroke-linecap="round"/>
  <path d="M501.0 813.7 Q441.4 837.5 379.7 856.9" fill="none" stroke="#768390" stroke-width="2.4" stroke-linecap="round"/>
  <path d="M379.6 856.9 Q382.4 854.3 387.1 847.6" fill="none" stroke="#768390" stroke-width="2.4" stroke-linecap="round"/>
  <path d="M378.6 857.4 Q383.9 851.4 386.8 848.3" fill="none" stroke="#768390" stroke-width="2.4" stroke-linecap="round"/>
  <path d="M378.6 857.9 Q383.8 858.1 393.0 861.9" fill="none" stroke="#768390" stroke-width="2.4" stroke-linecap="round"/>
  <path d="M379.0 857.1 Q385.9 858.0 391.9 861.3" fill="none" stroke="#768390" stroke-width="2.4" stroke-linecap="round"/>
  <polygon points="38.1,858.7 638.0,861.5 638.9,954.3 41.9,953.9" fill="#dcfce7"/>
  <path d="M36.2 861.2 Q340.5 862.4 644.3 859.5" fill="none" stroke="#768390" stroke-width="2.2" stroke-linecap="round"/>
  <path d="M36.9 859.1 Q340.6 859.8 641.6 861.4" fill="none" stroke="#768390" stroke-width="2.2" stroke-linecap="round"/>
  <path d="M640.1 857.1 Q640.4 906.7 639.3 958.6" fill="none" stroke="#768390" stroke-width="2.2" stroke-linecap="round"/>
  <path d="M638.4 856.9 Q640.0 907.9 639.6 957.9" fill="none" stroke="#768390" stroke-width="2.2" stroke-linecap="round"/>
  <path d="M641.9 952.9 Q340.8 953.1 36.4 953.2" fill="none" stroke="#768390" stroke-width="2.2" stroke-linecap="round"/>
  <path d="M643.4 955.6 Q338.3 956.0 36.3 954.1" fill="none" stroke="#768390" stroke-width="2.2" stroke-linecap="round"/>
  <path d="M38.4 958.0 Q37.9 907.0 41.1 858.0" fill="none" stroke="#768390" stroke-width="2.2" stroke-linecap="round"/>
  <path d="M40.7 955.7 Q42.3 906.7 39.9 856.9" fill="none" stroke="#768390" stroke-width="2.2" stroke-linecap="round"/>
  <text x="340.0" y="890" fill="#1f2328" font-size="18" font-weight="bold" font-style="normal" text-anchor="middle">Transport: HTTP/2 (nghttp2)</text>
  <text x="340.0" y="916" fill="#1f2328" font-size="15" font-weight="normal" font-style="normal" text-anchor="middle">One connection per endpoint/protocol tuple (default)</text>
  <text x="340.0" y="938" fill="#1f2328" font-size="15" font-weight="normal" font-style="normal" text-anchor="middle">TLS via OpenSSL · epoll / kqueue I/O loop</text>
  <text x="664" y="894" fill="#768390" font-size="14" font-weight="normal" font-style="normal" text-anchor="start">src/transport/  (Track D)</text>
  <path d="M341.1 957.4 Q342.9 974.8 340.9 995.7" fill="none" stroke="#768390" stroke-width="2.4" stroke-linecap="round"/>
  <path d="M341.0 957.1 Q339.1 978.0 340.1 996.1" fill="none" stroke="#768390" stroke-width="2.4" stroke-linecap="round"/>
  <path d="M339.4 995.4 Q335.5 990.8 331.8 984.3" fill="none" stroke="#768390" stroke-width="2.4" stroke-linecap="round"/>
  <path d="M339.6 996.6 Q335.6 992.6 331.9 984.6" fill="none" stroke="#768390" stroke-width="2.4" stroke-linecap="round"/>
  <path d="M341.1 996.5 Q344.1 989.4 345.2 984.5" fill="none" stroke="#768390" stroke-width="2.4" stroke-linecap="round"/>
  <path d="M340.2 995.9 Q344.0 989.9 345.2 986.5" fill="none" stroke="#768390" stroke-width="2.4" stroke-linecap="round"/>
  <text x="340" y="1024" fill="#768390" font-size="17" font-weight="bold" font-style="normal" text-anchor="middle">OTel Collector (any)</text>
  <text x="340" y="1048" fill="#768390" font-size="14" font-weight="normal" font-style="normal" text-anchor="middle">or any OTLP-compatible backend</text>
</g>
</svg>
